<svg xmlns="http://www.w3.org/2000/svg" fill="none" viewBox="0 0 500 373"><g clip-path="url(#a)" opacity=".92"><mask id="b" width="500" height="1" x="0" y="327" maskUnits="userSpaceOnUse" style="mask-type:luminance"><path fill="#fff" fill-rule="evenodd" d="M0 327h500v1H0z" clip-rule="evenodd"/></mask><g mask="url(#b)"><path fill="#E4E4DE" fill-rule="evenodd" d="M0 327.63h500v-.25H0z" clip-rule="evenodd"/></g><path fill="#E4E4DE" fill-rule="evenodd" d="M397 343.63h53v-.25h-53zm-124-3h59v-.25h-59zm107-1h19v-.25h-19z" clip-rule="evenodd"/><path fill="#D0D9E6" fill-rule="evenodd" d="M100 336.63h43v-.25h-43zm-21 0h15v-.25H79zm52 4h54v-.25h-54zM43.7.25a5.46 5.46 0 0 0-5.45 5.46v271.43a5.46 5.46 0 0 0 5.46 5.46h193.1c3 0 5.45-2.45 5.45-5.46V5.7a5.46 5.46 0 0 0-5.45-5.46zm193.1 282.6H43.7a5.7 5.7 0 0 1-5.7-5.71V5.7C38 2.56 40.56 0 43.7 0h193.1a5.7 5.7 0 0 1 5.71 5.7v271.44a5.7 5.7 0 0 1-5.7 5.7M260.7.25c-3 0-5.45 2.45-5.45 5.46v271.43a5.46 5.46 0 0 0 5.46 5.46h193.1c3 0 5.45-2.45 5.45-5.46V5.7a5.46 5.46 0 0 0-5.45-5.46zm193.1 282.6H260.7a5.7 5.7 0 0 1-5.7-5.71V5.7a5.7 5.7 0 0 1 5.7-5.71h193.1a5.7 5.7 0 0 1 5.71 5.7v271.44a5.7 5.7 0 0 1-5.7 5.7" clip-rule="evenodd"/><path fill="#E3ECFA" fill-rule="evenodd" d="M117.87 267H57.13a5.05 5.05 0 0 1-5.13-4.94v-2.12c0-2.72 2.3-4.94 5.13-4.94h60.74a5.05 5.05 0 0 1 5.13 4.94v2.12c0 2.72-2.3 4.94-5.13 4.94" clip-rule="evenodd"/><path fill="#DAE2F0" fill-rule="evenodd" d="M71 267h-9.82L50 327h9.82zm21 0H81.75L76 327h10.25zm11 0h9.83L124 327h-9.82zm94-47h234V16H197z" clip-rule="evenodd"/><path fill="#E3ECFA" fill-rule="evenodd" d="M200 220h237V16H200z" clip-rule="evenodd"/><path fill="#DDDED8" fill-rule="evenodd" d="M197 223h234v-4H197z" clip-rule="evenodd"/><path fill="#DAE2F0" fill-rule="evenodd" d="M204 223h237v-4H204z" clip-rule="evenodd"/><path fill="#FCFEFF" fill-rule="evenodd" d="M210 213h218V22H210z" clip-rule="evenodd"/><path fill="#FFFFFE" fill-rule="evenodd" d="m280 213 40.9-191H348l-40.9 191zm-32 0 40.9-191H316l-40.9 191z" clip-rule="evenodd"/><path fill="#EAEAE5" fill-rule="evenodd" d="M215 22.52v177.96c0 .29.4.52.9.52h1.2c.5 0 .9-.23.9-.52V22.52c0-.29-.4-.52-.9-.52h-1.2c-.5 0-.9.23-.9.52" clip-rule="evenodd"/><path fill="#FFFFFE" fill-rule="evenodd" d="m350 213 41.33-191H402l-41.33 191z" clip-rule="evenodd"/><path fill="#DAE2F0" fill-rule="evenodd" d="M427 213h1V22h-1z" clip-rule="evenodd"/><path fill="#E3ECFA" fill-rule="evenodd" d="M440 29h-2v-5h1.22z" clip-rule="evenodd"/><path fill="#DAE2F0" fill-rule="evenodd" d="M428 29h10v-5h-10z" clip-rule="evenodd"/><path fill="#E3ECFA" fill-rule="evenodd" d="M426.98 29.46h-27.03l1.17-5.46h25.86zm-37.63 0h-11.08L378 24h12.52z" clip-rule="evenodd"/><path fill="#EBF3FF" fill-rule="evenodd" d="M399.8 29H389l1.2-5H401z" clip-rule="evenodd"/><path fill="#CCD3E0" fill-rule="evenodd" d="M427 29h1v-5h-1z" clip-rule="evenodd"/><path fill="#E3ECFA" fill-rule="evenodd" d="M440 48h-2v-5h1.22z" clip-rule="evenodd"/><path fill="#DAE2F0" fill-rule="evenodd" d="M428 48h10v-5h-10z" clip-rule="evenodd"/><path fill="#E3ECFA" fill-rule="evenodd" d="M427.07 48.46H396l1.17-5.46h29.89zm-41.66 0h-6.14L379 43h7.58z" clip-rule="evenodd"/><path fill="#EBF3FF" fill-rule="evenodd" d="M395.8 48H385l1.2-5H397z" clip-rule="evenodd"/><path fill="#CCD3E0" fill-rule="evenodd" d="M427 48h1v-5h-1z" clip-rule="evenodd"/><path fill="#E3ECFA" fill-rule="evenodd" d="M440 67h-2v-5h1.22z" clip-rule="evenodd"/><path fill="#DAE2F0" fill-rule="evenodd" d="M428 67h10v-5h-10z" clip-rule="evenodd"/><path fill="#E3ECFA" fill-rule="evenodd" d="M427.16 67.46h-35.1l1.18-5.46h33.92zm-45.7 0h-1.2L380 62h2.64z" clip-rule="evenodd"/><path fill="#EBF3FF" fill-rule="evenodd" d="M391.8 67H381l1.2-5H393z" clip-rule="evenodd"/><path fill="#CCD3E0" fill-rule="evenodd" d="M427 67h1v-5h-1z" clip-rule="evenodd"/><path fill="#E3ECFA" fill-rule="evenodd" d="M440 86h-2v-5h1.22z" clip-rule="evenodd"/><path fill="#DAE2F0" fill-rule="evenodd" d="M428 86h10v-5h-10z" clip-rule="evenodd"/><path fill="#E3ECFA" fill-rule="evenodd" d="M427 86h-39l1.17-5H427z" clip-rule="evenodd"/><path fill="#EBF3FF" fill-rule="evenodd" d="M387.87 86h-6.61l-.26-5h8z" clip-rule="evenodd"/><path fill="#CCD3E0" fill-rule="evenodd" d="M427 86h1v-5h-1z" clip-rule="evenodd"/><path fill="#E3ECFA" fill-rule="evenodd" d="M440 104h-2v-5h1.22z" clip-rule="evenodd"/><path fill="#DAE2F0" fill-rule="evenodd" d="M428 104h10v-5h-10z" clip-rule="evenodd"/><path fill="#E3ECFA" fill-rule="evenodd" d="M427 104h-43l1.17-5H427z" clip-rule="evenodd"/><path fill="#EBF3FF" fill-rule="evenodd" d="M382.95 104h-1.71l-.24-5h3z" clip-rule="evenodd"/><path fill="#CCD3E0" fill-rule="evenodd" d="M427 104h1v-5h-1z" clip-rule="evenodd"/><path fill="#E3ECFA" fill-rule="evenodd" d="M440 123h-2v-5h1.22z" clip-rule="evenodd"/><path fill="#DAE2F0" fill-rule="evenodd" d="M428 123h10v-5h-10z" clip-rule="evenodd"/><path fill="#E3ECFA" fill-rule="evenodd" d="M426 123h-41.89c-.5-.77-1.18-1.8-2-2.97L382 118h44z" clip-rule="evenodd"/><path fill="#CCD3E0" fill-rule="evenodd" d="M427 123h1v-5h-1z" clip-rule="evenodd"/><path fill="#E3ECFA" fill-rule="evenodd" d="M440 39h-2v-5h1.22z" clip-rule="evenodd"/><path fill="#DAE2F0" fill-rule="evenodd" d="M428 39h10v-5h-10z" clip-rule="evenodd"/><path fill="#E3ECFA" fill-rule="evenodd" d="M426.53 39.46h-29.05l1.17-5.46h27.88zm-39.65 0h-8.61L378 34h10.05z" clip-rule="evenodd"/><path fill="#EBF3FF" fill-rule="evenodd" d="M397.8 39H387l1.2-5H399z" clip-rule="evenodd"/><path fill="#CCD3E0" fill-rule="evenodd" d="M427 39h1v-5h-1z" clip-rule="evenodd"/><path fill="#E3ECFA" fill-rule="evenodd" d="M440 58h-2v-5h1.22z" clip-rule="evenodd"/><path fill="#DAE2F0" fill-rule="evenodd" d="M428 58h10v-5h-10z" clip-rule="evenodd"/><path fill="#E3ECFA" fill-rule="evenodd" d="M426.61 58.46h-33.07L394.7 53h31.9zm-43.67 0h-3.68L379 53h5.11z" clip-rule="evenodd"/><path fill="#EBF3FF" fill-rule="evenodd" d="M393.8 58H383l1.2-5H395z" clip-rule="evenodd"/><path fill="#CCD3E0" fill-rule="evenodd" d="M427 58h1v-5h-1z" clip-rule="evenodd"/><path fill="#E3ECFA" fill-rule="evenodd" d="M440 76h-2v-5h1.22z" clip-rule="evenodd"/><path fill="#DAE2F0" fill-rule="evenodd" d="M428 76h10v-5h-10z" clip-rule="evenodd"/><path fill="#E3ECFA" fill-rule="evenodd" d="M426.7 76.46h-37.1l1.17-5.46h35.93zm-46.67-4.81L380 71h.17z" clip-rule="evenodd"/><path fill="#EBF3FF" fill-rule="evenodd" d="M389.8 76h-9.56l-.24-4.4.14-.6H391z" clip-rule="evenodd"/><path fill="#CCD3E0" fill-rule="evenodd" d="M427 76h1v-5h-1z" clip-rule="evenodd"/><path fill="#E3ECFA" fill-rule="evenodd" d="M440 95h-2v-5h1.22z" clip-rule="evenodd"/><path fill="#DAE2F0" fill-rule="evenodd" d="M428 95h10v-5h-10z" clip-rule="evenodd"/><path fill="#E3ECFA" fill-rule="evenodd" d="M427 95h-41l1.17-5H427z" clip-rule="evenodd"/><path fill="#EBF3FF" fill-rule="evenodd" d="M385.8 95h-4.53l-.27-5h6z" clip-rule="evenodd"/><path fill="#CCD3E0" fill-rule="evenodd" d="M427 95h1v-5h-1z" clip-rule="evenodd"/><path fill="#E3ECFA" fill-rule="evenodd" d="M440 114h-2v-5h1.22z" clip-rule="evenodd"/><path fill="#DAE2F0" fill-rule="evenodd" d="M428 114h10v-5h-10z" clip-rule="evenodd"/><path fill="#E3ECFA" fill-rule="evenodd" d="M427 114h-44.9l-.1-1.91.73-3.09H427z" clip-rule="evenodd"/><path fill="#E9E9E4" fill-rule="evenodd" d="m382.22 112-.17-3h.9z" clip-rule="evenodd"/><path fill="#CCD3E0" fill-rule="evenodd" d="M427 114h1v-5h-1z" clip-rule="evenodd"/><path fill="#E3ECFA" fill-rule="evenodd" d="M440 133h-2v-5h1.22z" clip-rule="evenodd"/><path fill="#DAE2F0" fill-rule="evenodd" d="M428 133h10v-5h-10z" clip-rule="evenodd"/><path fill="#E3ECFA" fill-rule="evenodd" d="M426 133h-38.96a71 71 0 0 0-3.04-5h42z" clip-rule="evenodd"/><path fill="#CCD3E0" fill-rule="evenodd" d="M427 133h1v-5h-1z" clip-rule="evenodd"/><path fill="#DDDED8" fill-rule="evenodd" d="M400 328h31v-93h-31z" clip-rule="evenodd"/><path fill="#E3ECFA" fill-rule="evenodd" d="M411.96 328H431v-11h-39z" clip-rule="evenodd"/><path fill="#DAE2F0" fill-rule="evenodd" d="M307 328h31v-93h-31z" clip-rule="evenodd"/><path fill="#E3ECFA" fill-rule="evenodd" d="M322 326h109v-91H322z" clip-rule="evenodd"/><path fill="#E3ECFA" fill-rule="evenodd" d="M341.04 328H322v-11h39z" clip-rule="evenodd"/><path fill="#FCFEFF" fill-rule="evenodd" d="M336 292h80v-47h-80zm0 27h80v-22h-80z" clip-rule="evenodd"/><path fill="#E4E4DE" fill-rule="evenodd" d="M382.8 247h-14.6a4.1 4.1 0 0 1-4.2-4h23c0 2.21-1.88 4-4.2 4" clip-rule="evenodd"/><path fill="#E3ECFA" fill-rule="evenodd" d="M382.8 299h-14.6a4.1 4.1 0 0 1-4.2-4h23c0 2.2-1.88 4-4.2 4M282 328h31v-93h-31z" clip-rule="evenodd"/><path fill="#E3ECFA" fill-rule="evenodd" d="M294.96 328H314v-11h-39z" clip-rule="evenodd"/><path fill="#DAE2F0" fill-rule="evenodd" d="M190 328h31v-93h-31z" clip-rule="evenodd"/><path fill="#E3ECFA" fill-rule="evenodd" d="M204 326h109v-91H204z" clip-rule="evenodd"/><path fill="#E3ECFA" fill-rule="evenodd" d="M223.04 328H204v-11h39z" clip-rule="evenodd"/><path fill="#FCFEFF" fill-rule="evenodd" d="M219 292h80v-47h-80zm0 27h80v-22h-80z" clip-rule="evenodd"/><path fill="#E4E4DE" fill-rule="evenodd" d="M265.8 247h-14.6a4.1 4.1 0 0 1-4.2-4h23c0 2.21-1.88 4-4.2 4" clip-rule="evenodd"/><path fill="#E3ECFA" fill-rule="evenodd" d="M265.8 299h-14.6a4.1 4.1 0 0 1-4.2-4h23c0 2.2-1.88 4-4.2 4" clip-rule="evenodd"/><path fill="#DAE2F0" fill-rule="evenodd" d="M204 235h226v-4H204z" clip-rule="evenodd"/><path fill="#D4D5CF" fill-rule="evenodd" d="M190 235h15v-4h-15z" clip-rule="evenodd"/><path fill="#DDDED8" fill-rule="evenodd" d="M84.68 240.72c-1.45-36.52-2.99-72.84.17-91.16L90 146s-1.13 3.41-1.72 59.37c-.41 38.9-.9 36.78-.94 34.67-.02-.93.05-1.85.24.68z" clip-rule="evenodd"/><path fill="#DDDED8" fill-rule="evenodd" d="M92.53 110.73c7.7-20.18 25.62-39.66 45.1-47.63 7.65-3.13-3.37 65.68-31.1 70.11C93 135.38 88.78 170.25 86.5 187c-.77-32.95-1.66-56.1 6.04-76.27" clip-rule="evenodd"/><path fill="#DDDED8" fill-rule="evenodd" d="M90.44 161.6c5.41-8.57 14.25-20.59 27.17-20.6 14.64-.01 1.83 24.11-15.38 31.82-8.4 3.76-15.41 15.7-17.23 23.18.15-15.15.04-25.82 5.44-34.4" clip-rule="evenodd"/><path fill="#DAE2F0" fill-rule="evenodd" d="M77.5 136.3c-9.42-16.72-30.44-33.52-52.81-41.17-8.79-3-9.66 46.5 37.7 58.35C77.7 157.3 83.84 184.38 87 198c-.26-26.44-.06-45-9.5-61.7" clip-rule="evenodd"/><path fill="#DAE2F0" fill-rule="evenodd" d="M83.49 175.93c-6.07-10.61-22.56-15.8-37.4-14.81-5.82.39-6.46 22.18 25.94 30.6 9.82 2.55 13.79 19.63 15.83 28.28-.17-16.8 1.7-33.45-4.37-44.07m-.35-56.79c-4.7-15-18.54-28.45-31.24-34-4.99-2.19-6.52 22.69 20.74 47.04 8.27 7.39 10.88 28.91 12.22 39.82.62-19.48 2.97-37.86-1.72-52.86" clip-rule="evenodd"/><path fill="#E3ECFA" fill-rule="evenodd" d="M86.5 255c-10 0-18.26-.73-18.83-14.25L66 223h41l-1.67 17.75C104.76 254.27 96.5 255 86.5 255" clip-rule="evenodd"/><path fill="#E3ECFA" fill-rule="evenodd" d="M105.84 230H65.16L64 222h43z" clip-rule="evenodd"/><path fill="#E3ECFA" fill-rule="evenodd" d="M444 361.5c0 6.35-86.86 11.5-194 11.5s-194-5.15-194-11.5S142.86 350 250 350s194 5.15 194 11.5" clip-rule="evenodd" opacity=".6"/><path fill="#3F8CFF" fill-rule="evenodd" d="M72.99 63 72 43.05l1.01-.05.99 19.95zm.34 17L73 70.05l.67-.05.33 9.95zm13.19 167c-.94 0-1.72-.74-1.77-1.69L74 23.86A1.77 1.77 0 0 1 75.77 22h299.7c.95 0 1.73.74 1.77 1.69L388 245.14a1.77 1.77 0 0 1-1.77 1.86z" clip-rule="evenodd"/><path fill="#F4F9FD" fill-rule="evenodd" d="M366.76 243.37H90.18c-.94 0-1.72-.75-1.77-1.69L78.01 27.86A1.77 1.77 0 0 1 79.76 26h292.81c.95 0 1.73.74 1.77 1.69l4.26 87.48c-2.08-2.61-4.4-5.06-6.65-6.37a11 11 0 0 0-5.98-1.85c-3.63-3.51-2.92-10.8-1.82-16.07l-11.04 6.15c.84 3.53.94 7.81-1.94 9.8l-1.56.12c-1.8.16-3.58.43-5.16.7q-.6.12-1.17.28a16 16 0 0 0-5.14 2.7c-7.64 5.76-13.31 17.96-13.31 17.96l1.8 1a133 133 0 0 1-5.23 5.44c-1.98 1.93-3.97 3.77-6.12 5.79l-.4.02a7 7 0 0 1-1.68-.24 19 19 0 0 1-3.27-1.19l.17-3.7 9.13-.3c.53-4.91-.2-13.09-1.42-21.56-1.04-8.86-2.83-18.96-4.74-29.25l-9.1.58-2.27-46.37a.93.93 0 0 0-.9-.86h-.05a.9.9 0 0 0-.86.95l2.26 46.39-37.33 2.37.35 1.51v.03l.53 2.39c1.45 6.7 2.57 13.23 3.38 19.48l-6.08-.95c.1 17.98-1.84 34.44-4.98 47.37l48.09 9.02 3.11 64.05a.9.9 0 0 0 .9.86h.05a.9.9 0 0 0 .87-.95l-3.39-69.53c.67-3.51 1.2-7.71 1.61-12.15q.5.23 1 .43c1.23.49 2.6.9 4.17 1.08a12 12 0 0 0 5.17-.57l.68-.24.82-.68c2.32-1.91 4.94-4 7.38-6.18q3.2-2.82 6.2-5.92a196 196 0 0 0 .13 5.07c.29 7.85 1.04 17.5 2.49 29.36h7.47l-2.57 8.63 5.37 1.6-.07.44 5.79 1.26.27.09a20922 20922 0 0 0 13.2 60.2M160.01 209.1l1.04 21.45a.9.9 0 0 0 .9.86h.05a.9.9 0 0 0 .87-.95l-1.05-21.54 25.34-2.58c-.13-11.3-5.94-37.53-9.38-47.36l-18.29 2.17-1.57-32.17 5.7-.31c-2.57-17-4.43-33.34-4.97-48.42l-3.1.12-2.02-41.57a.9.9 0 0 0-.9-.86h-.05a.9.9 0 0 0-.86.95l2.02 41.55-42.27 1.63c-.1 13.83 1.06 32.5 3.85 49.2l40.8-2.2 1.56 32.3-26.62 3.16c4.97 17.52 5.18 33.4 6.56 46.85zm15.88-113.74v48.13l48.54 2.93V98.3zM383.37 212.8a3388 3388 0 0 0-3.93-21.94l2.9.86zm-3.5-71.88-4.59-1q.06-2.14.17-4.36l.77-.79q2 2.98 3.64 6.03zm-63.94-.27.12-.07z" clip-rule="evenodd"/><path fill="#3F8CFF" d="m104.7 45.11-2.6.05-.02-1.37 6.72-.12.02 1.37-2.6.05.12 7.12-1.51.03zm3.47 4.19q0-.69.22-1.24a3 3 0 0 1 1.64-1.6 3.5 3.5 0 0 1 3.46.55q.42.4.67.95.27.54.28 1.23a3 3 0 0 1-.88 2.21q-.4.4-.98.63a3.5 3.5 0 0 1-3.46-.55 3 3 0 0 1-.68-.94 3 3 0 0 1-.27-1.24m1.44-.02q0 .33.12.64.13.3.35.55.23.23.55.37.3.15.7.13a1.7 1.7 0 0 0 1.23-.55q.23-.24.33-.55a1.8 1.8 0 0 0-.02-1.3q-.12-.3-.35-.55a1.6 1.6 0 0 0-1.24-.5 1.7 1.7 0 0 0-1.57 1.1q-.1.32-.1.66m9.76-5.8 3.35-.05q.84-.01 1.62.24a4 4 0 0 1 2.38 2.07q.37.78.39 1.86a4 4 0 0 1-2.87 4.05q-.78.27-1.55.28l-3.17.05zm2.76 7.09q.72 0 1.33-.18.63-.18 1.1-.52.45-.36.71-.9.27-.57.26-1.34t-.27-1.32-.68-.87a3 3 0 0 0-1.02-.49q-.58-.15-1.28-.14l-1.37.02.1 5.76zm6.02-1.62q0-.68.22-1.24a3 3 0 0 1 1.64-1.6 3.5 3.5 0 0 1 3.45.55q.43.4.68.95.27.55.27 1.23a3 3 0 0 1-.87 2.21q-.4.4-.98.63a3.5 3.5 0 0 1-3.46-.55 3 3 0 0 1-.69-.93 3 3 0 0 1-.26-1.25m1.44-.02q0 .33.12.64t.35.55.54.37q.32.15.71.13.4 0 .7-.15a1.6 1.6 0 0 0 .86-.95 1.8 1.8 0 0 0-.37-1.84 1.6 1.6 0 0 0-1.25-.51 1.7 1.7 0 0 0-1.24.55 1.8 1.8 0 0 0-.42 1.2m30.51-4.89 1.52-.02.15 8.5-1.51.02zm3.3 2.68 1.37-.02.01.92h.03q.2-.44.6-.75.42-.33 1.14-.35.58 0 .98.18a1.8 1.8 0 0 1 1.04 1.2q.12.42.12.85l.06 3.64-1.44.03-.05-2.92-.03-.53q-.03-.3-.14-.55a.9.9 0 0 0-.91-.6q-.36.01-.61.14-.25.12-.4.33t-.22.47a2 2 0 0 0-.07.55l.06 3.15-1.44.02zm10.52-2.92 2.86-.05q.6 0 1.18.1.57.11 1.01.4.45.26.7.74.28.46.28 1.17.02.8-.25 1.3t-.73.78-1.09.38q-.6.1-1.28.12l-1.08.02.06 3.51-1.5.03zm2.5 3.64.66-.03a2 2 0 0 0 .64-.16q.3-.12.47-.37.2-.24.18-.67 0-.4-.18-.62a1 1 0 0 0-.44-.35 2 2 0 0 0-.59-.16l-.62-.03-1.08.02.04 2.39zm4.75-1.03 1.44-.02.02.9h.02a1.8 1.8 0 0 1 2.2-1l.03 1.39a3 3 0 0 0-.7-.1q-.5.02-.81.21-.3.18-.46.43a1.6 1.6 0 0 0-.25.84l.05 3.09-1.44.02zm4.22 2.8q-.02-.68.22-1.23a3 3 0 0 1 1.64-1.6 3.5 3.5 0 0 1 3.45.55q.43.4.68.95t.27 1.23a3 3 0 0 1-.87 2.21q-.41.4-.99.63a3.5 3.5 0 0 1-3.45-.55 3 3 0 0 1-.69-.94 3 3 0 0 1-.26-1.24m1.44-.02q0 .34.12.65.13.3.34.55.24.23.55.37.31.15.71.13a1.7 1.7 0 0 0 1.23-.55q.22-.24.32-.55a1.8 1.8 0 0 0-.02-1.3q-.12-.3-.34-.55a1.6 1.6 0 0 0-1.25-.5 1.7 1.7 0 0 0-1.24.55 1.8 1.8 0 0 0-.42 1.2m12.05-3.09.09 5.25q0 .78-.17 1.4a2.6 2.6 0 0 1-1.58 1.78q-.6.25-1.44.27-.81 0-1.53-.18a3.4 3.4 0 0 1-1.35-.72l.85-1.19q.44.39.9.6t1.1.2q.5-.02.85-.17a1.4 1.4 0 0 0 .85-1.02q.1-.35.08-.78v-.42h-.03q-.3.42-.82.65-.51.21-1.05.22-.64.01-1.18-.2a2.8 2.8 0 0 1-1.52-1.55 3.6 3.6 0 0 1-.05-2.34 2.7 2.7 0 0 1 1.43-1.62q.52-.25 1.2-.26.6-.01 1.14.22.52.23.85.75h.02l-.01-.86zm-3.06 1.2a1.8 1.8 0 0 0-1.22.51q-.21.22-.34.55a2 2 0 0 0 .02 1.34 1.7 1.7 0 0 0 .92.87q.3.14.67.12a1.8 1.8 0 0 0 1.24-.5q.22-.23.34-.55.12-.3.1-.67 0-.75-.47-1.22-.46-.45-1.26-.44m4.69-1.23 1.44-.02.01.91h.03a1.8 1.8 0 0 1 2.2-1l.02 1.38a3 3 0 0 0-.7-.1q-.5.01-.8.21t-.47.43a1.6 1.6 0 0 0-.25.85l.06 3.08-1.44.02zm5.66 3.29q.09.64.52 1 .44.35 1.05.34.54 0 .9-.23.37-.24.64-.58l1.04.77a3 3 0 0 1-2.41 1.2q-.66 0-1.23-.2a3 3 0 0 1-1.7-1.53 3 3 0 0 1-.26-1.25q0-.68.22-1.24a3 3 0 0 1 1.64-1.6q.57-.22 1.22-.24.6 0 1.1.2t.86.59.57.97.22 1.33l.01.4zm2.93-1.13a1.3 1.3 0 0 0-.41-.99 1.5 1.5 0 0 0-1.07-.35q-.66 0-1.03.39-.36.37-.44 1zm5.85-.81a1.3 1.3 0 0 0-1.7-.42.5.5 0 0 0-.27.48q0 .26.24.38.22.1.57.2.36.06.75.16.42.08.76.26t.59.5q.22.3.24.88a1.6 1.6 0 0 1-.78 1.45q-.34.22-.78.33a4 4 0 0 1-2.13-.06 2.4 2.4 0 0 1-1.02-.68l.94-.92q.3.3.6.51.33.18.78.18.16 0 .33-.04.16-.04.3-.13.15-.1.23-.2a.5.5 0 0 0 .1-.3q-.01-.3-.24-.45-.24-.14-.58-.22l-.76-.15a3 3 0 0 1-.75-.24 2 2 0 0 1-.58-.48q-.24-.31-.25-.86 0-.48.18-.83.2-.37.52-.6t.74-.35a3.4 3.4 0 0 1 1.99.06q.57.18.92.66zm5.33-.1a1.3 1.3 0 0 0-1.7-.4.5.5 0 0 0-.27.46q0 .26.24.38.22.12.58.2.35.07.74.17.42.07.76.26.35.17.59.5.23.3.24.88a1.6 1.6 0 0 1-.78 1.45q-.34.23-.78.33a4 4 0 0 1-2.13-.06 2.4 2.4 0 0 1-1.02-.68l.94-.92q.3.3.6.5.33.2.79.19.15 0 .32-.05.17-.03.3-.12a1 1 0 0 0 .23-.2.5.5 0 0 0 .1-.31q-.01-.3-.24-.44-.24-.15-.58-.22l-.76-.15a3 3 0 0 1-.75-.24 2 2 0 0 1-.58-.48q-.24-.32-.25-.86 0-.48.18-.84.2-.36.52-.6t.74-.34a3.4 3.4 0 0 1 1.99.06q.57.18.92.66zm17.05-3.37 1.51-.03.15 8.5-1.51.02zm3.3 2.68 1.36-.02.02.92h.02q.2-.44.61-.76.42-.33 1.14-.34.57 0 .97.17a1.8 1.8 0 0 1 1.04 1.21q.12.4.13.85l.06 3.64-1.44.02-.05-2.91-.03-.53q-.04-.3-.15-.55a.9.9 0 0 0-.91-.6q-.36 0-.6.13-.25.14-.4.33-.16.21-.23.48a2 2 0 0 0-.06.55l.05 3.14-1.44.03zm10.52-2.92 2.95-.05q.6-.02 1.18.1.57.09 1.02.36t.72.73.29 1.19q.01.92-.49 1.55-.49.64-1.44.79l2.32 3.71-1.82.03-2.03-3.56-1.1.02.06 3.6-1.52.02zm2.75 3.55q.32 0 .64-.03.33-.04.59-.16.27-.12.44-.35.16-.25.16-.67-.01-.36-.17-.6a1 1 0 0 0-.42-.32 2 2 0 0 0-.56-.15q-.3-.03-.6-.02l-1.3.02.04 2.3zm5.93 2.42q.09.64.52 1 .44.35 1.05.34.54 0 .9-.23.37-.24.64-.58l1.04.76q-.5.64-1.11.91t-1.3.29q-.65 0-1.23-.2a3 3 0 0 1-1.7-1.53 3 3 0 0 1-.26-1.24q0-.69.22-1.24a3 3 0 0 1 1.64-1.6q.57-.22 1.22-.24.6 0 1.1.2t.86.58q.36.4.57.98.21.57.22 1.33l.01.4zm2.93-1.13a1.3 1.3 0 0 0-.41-1 1.5 1.5 0 0 0-1.07-.35q-.66.01-1.03.4-.36.37-.44 1zm1.97-2.34 1.57-.03 1.6 4h.03l1.48-4.05 1.47-.03-2.16 5.8-1.54.03zm7.02-.12 1.44-.03.1 5.76-1.43.02zm-.23-1.96q0-.34.24-.6a1 1 0 0 1 .65-.28q.4 0 .67.24.28.24.29.61 0 .38-.27.63a1 1 0 0 1-.66.25.86.86 0 0 1-.93-.85m4.54 5.26q.09.66.52 1 .44.36 1.05.35.54-.01.9-.24t.64-.57l1.04.76q-.5.63-1.11.9-.63.3-1.3.3-.66 0-1.23-.2a3 3 0 0 1-1.7-1.53 3 3 0 0 1-.26-1.24q-.01-.69.22-1.24a3 3 0 0 1 1.64-1.6q.57-.23 1.22-.24.6 0 1.1.2.5.19.86.58t.57.97.22 1.33l.01.4zm2.93-1.13a1.3 1.3 0 0 0-.41-.99 1.5 1.5 0 0 0-1.08-.35q-.64 0-1.02.4-.38.37-.44 1zm1.97-2.34 1.56-.02 1.32 4h.02l1.1-4.04 1.55-.03 1.32 4h.03l1.13-4.05 1.45-.02-1.86 5.8-1.43.02-1.43-3.91h-.03l-1.14 3.95-1.49.03zm40.32-2.18 3.34-.06q.84 0 1.63.24a4 4 0 0 1 2.38 2.07q.37.78.39 1.87a4 4 0 0 1-2.87 4.04q-.8.27-1.56.28l-3.16.06zm2.76 7.08q.71 0 1.33-.18t1.1-.52q.45-.36.71-.9.27-.56.25-1.34-.01-.76-.26-1.31t-.69-.88a3 3 0 0 0-1.01-.48q-.58-.16-1.28-.15l-1.38.02.1 5.76zm6.02-1.61q-.02-.69.22-1.24a3 3 0 0 1 1.64-1.6 3.5 3.5 0 0 1 3.45.55q.43.39.68.94t.27 1.24a3 3 0 0 1-.87 2.2q-.41.42-.99.64a3.5 3.5 0 0 1-3.45-.55 3 3 0 0 1-.69-.94 3 3 0 0 1-.26-1.24m1.44-.03q0 .33.12.65.12.3.34.54.24.24.55.38.31.13.71.13a1.7 1.7 0 0 0 1.23-.55q.22-.24.32-.56a1.8 1.8 0 0 0-.37-1.84 1.6 1.6 0 0 0-1.24-.5 1.7 1.7 0 0 0-1.24.54 1.8 1.8 0 0 0-.42 1.21m6.12-2.99 1.37-.02.01.92h.03q.2-.44.6-.75.42-.33 1.14-.35.58 0 .98.18a1.8 1.8 0 0 1 1.04 1.2q.12.42.12.86l.06 3.63-1.44.03-.05-2.92-.03-.53q-.03-.3-.14-.55a.9.9 0 0 0-.91-.6q-.36.01-.61.14t-.4.33-.22.47-.06.55l.05 3.15-1.44.02zm8.1 3.25q.09.64.52 1 .44.34 1.05.34.54-.01.9-.23.36-.24.63-.58l1.05.76a3 3 0 0 1-2.42 1.2q-.65 0-1.22-.2a3 3 0 0 1-1.7-1.53 3 3 0 0 1-.26-1.24q0-.69.22-1.24a3 3 0 0 1 1.64-1.6q.57-.23 1.22-.24.6 0 1.1.2t.86.58q.36.4.57.98.2.57.22 1.32l.01.4zm2.93-1.14a1.3 1.3 0 0 0-.41-.98 1.5 1.5 0 0 0-1.08-.36q-.64.01-1.02.4-.36.37-.44 1z"/><path fill="#3F8CFF" fill-rule="evenodd" d="M162.1 231a.9.9 0 0 1-.89-.86l-9.2-191.2a.9.9 0 0 1 .84-.94c.48-.02.91.36.94.86l9.2 191.2a.9.9 0 0 1-.84.94zm148 0a.9.9 0 0 1-.89-.86l-9.2-191.2a.9.9 0 0 1 .84-.94c.47-.02.91.36.94.86l9.2 191.2a.9.9 0 0 1-.84.94zm-74 0a.9.9 0 0 1-.89-.86l-9.2-191.2a.9.9 0 0 1 .84-.94.9.9 0 0 1 .94.86l9.2 191.2a.9.9 0 0 1-.84.94z" clip-rule="evenodd"/><path fill="#3F8CFF" fill-rule="evenodd" d="M367.1 59H88.9c-.5 0-.9-.45-.9-1s.4-1 .9-1h278.2c.5 0 .9.45.9 1s-.4 1-.9 1" clip-rule="evenodd"/><path fill="#DADFE4" fill-rule="evenodd" d="M114.86 131.02a306 306 0 0 1-3.85-49.2l42.27-1.63 2.37 48.63zm42.6-2.3-2.36-48.6 3.09-.12c.54 15.08 2.4 31.42 4.96 48.42z" clip-rule="evenodd"/><path fill="#B0C9DF" fill-rule="evenodd" d="M156.27 129 154 80.07l1.74-.07 2.26 48.9z" clip-rule="evenodd"/><path fill="#12499A" fill-rule="evenodd" d="m164 126.4-48.06 2.6A358 358 0 0 1 111 80.6l48.06-2.6c.54 15.07 2.4 31.4 4.94 48.4" clip-rule="evenodd"/><path fill="#DADFE4" fill-rule="evenodd" d="m225 146-49-2.93V95l49 2.93z" clip-rule="evenodd"/><path fill="#FFFFFE" fill-rule="evenodd" d="M223.43 145 175 142.1l.57-48.1L224 96.9z" clip-rule="evenodd"/><path fill="#DADFE4" fill-rule="evenodd" d="m309.93 135.53.08-2.29 8.31-.42c.55-5.1.2-11.69-.68-19.14 1.23 8.47 1.95 16.64 1.42 21.55zm-40.64-24.57-.37-.06a236 236 0 0 0-3.38-19.49c1.47 6.74 2.76 13.3 3.75 19.55" clip-rule="evenodd"/><path fill="#6D5DD3" fill-rule="evenodd" d="m271.72 135 47.02-2.43c1.2-11.2-1.92-29.56-5.43-48.57L265 87.08c4.03 17.78 6.93 34.42 6.72 47.92" clip-rule="evenodd"/><path fill="#DADFE4" fill-rule="evenodd" d="M137.55 211.4c-1.37-13.45-1.58-29.33-6.55-46.85l26.62-3.16 2.33 47.74zm24.2-2.46-2.32-47.77 18.29-2.17c3.44 9.83 9.25 36.07 9.38 47.37z" clip-rule="evenodd"/><path fill="#B0C9DF" fill-rule="evenodd" d="M160.25 209 158 161.22l1.75-.22 2.25 47.82z" clip-rule="evenodd"/><path fill="#FDC748" fill-rule="evenodd" d="m139.15 210 47.8-5.16c.58-11.17-3.52-29.2-8.04-47.84L131 162.65c3.88 17.45 7.63 33.97 8.15 47.35" clip-rule="evenodd"/><path fill="#DADFE4" fill-rule="evenodd" d="M306.09 166.39 258 157.37c3.15-12.93 5.08-29.4 4.98-47.37l6.09.95c1.22 9.43 1.74 18.2 1.62 25.92l24.2-.79a56 56 0 0 0 4.05 4.8 45 45 0 0 0 6.17 5.37zm1.54-5.57-.65-13.35q1.07.65 2.27 1.2c-.41 4.44-.94 8.64-1.62 12.15m2.28-21.53q-.75-.34-1.5-.75-.96-.5-1.91-1.07l-.09-1.76 3.67-.12q-.06 1.84-.17 3.7m-5.29-2.97-.8-.53.78-.03z" clip-rule="evenodd"/><path fill="#B0C9DF" fill-rule="evenodd" d="m306.62 166.7-.13-.02-.98-20.14q.9.64 1.88 1.23l.65 13.34a42 42 0 0 1-1.42 5.6m.28-28.93q-.94-.56-1.87-1.16l-.03-.55 1.81-.06z" clip-rule="evenodd"/><path fill="#719CC6" fill-rule="evenodd" d="M270.62 136.92c.12-7.72-.4-16.5-1.62-25.92l.37.06c1.4 8.8 2.2 17 2.08 24.27l25.11-1.29-1.93 1.81.2.28zm33.13-1.08a105 105 0 0 1-2.93-2.02l3.6-.18.1 2.17zm2.6-.09-.11-2.2 3.86-.2-.08 2.28z" clip-rule="evenodd"/><path fill="#83A9CE" fill-rule="evenodd" d="m304.11 135-.11-1.92 1.89-.08.11 1.95z" clip-rule="evenodd"/><path fill="#3769A4" fill-rule="evenodd" d="M271.08 135c.12-7.2-.68-15.3-2.08-24l40.79 6.29c.24 3.56.28 9.32.08 15.74l-3.87.2-1.82.1-3.62.18q-1.15-.83-2.25-1.65l-2.02 1.86z" clip-rule="evenodd"/><path fill="#FFFFFE" fill-rule="evenodd" d="m259 155.16 46.78 7.84c3.63-10.43 4.55-28.62 5.22-47.5l-48.2-7.5c.1 17.83-.66 34.34-3.8 47.16" clip-rule="evenodd"/><path fill="#BE5B52" fill-rule="evenodd" d="M372.86 112a62 62 0 0 1 2.56 2.9q1.21 1.44 2.38 2.93a97 97 0 0 1 4.45 6.13 84 84 0 0 1 3.97 6.57 57 57 0 0 1 3.34 7.14l.37.93.09.24.11.35.22.69q.17.66.3 1.28l.18 1.2c.18 1.54.2 2.95.15 4.31a57 57 0 0 1-.86 7.8 94 94 0 0 1-3.81 14.53l-5.2-1.21a265 265 0 0 0 .87-14.2 68 68 0 0 0-.1-6.75 20 20 0 0 0-.43-2.94l-.15-.6-.16-.47-.56-1.16a80 80 0 0 0-7.06-11.43 166 166 0 0 0-6.35-8.18l-2.17-2.57z" clip-rule="evenodd"/><path fill="#BD5B52" fill-rule="evenodd" d="m381.71 166-3.71 3.86 7.25 4.14s2.5-3.23 1.52-6.53zm-8.71 9.63 7.02 2.37 4.98-3.91-7.2-4.09z" clip-rule="evenodd"/><path fill="#3769A4" fill-rule="evenodd" d="M392.97 192 347 181.97A343 343 0 0 1 357.03 136L403 146.03c-4.06 14.06-7.27 29.62-10.03 45.97" clip-rule="evenodd"/><path fill="#FFFFFE" fill-rule="evenodd" d="M386.7 193 342 179.7l13.3-44.7 44.7 13.3z" clip-rule="evenodd"/><path fill="#132529" fill-rule="evenodd" d="M346 82.03c-.02.55-.26.98-.54.97s-.48-.47-.46-1.03c.02-.55.26-.98.54-.97s.48.48.46 1.03" clip-rule="evenodd"/><path fill="#A92D2F" fill-rule="evenodd" d="M346 83s-1.48 3.56-3 5.24c.96 1.09 2.71.69 2.71.69z" clip-rule="evenodd"/><path fill="#132529" fill-rule="evenodd" d="m348.74 79 .2-.1c.1-.1.08-.26-.05-.34a3.5 3.5 0 0 0-2.68-.47c-.16.04-.25.18-.2.31.06.13.23.2.38.15.05 0 1.09-.27 2.12.4q.1.06.23.05" clip-rule="evenodd"/><path fill="#BD5B52" fill-rule="evenodd" d="M364.17 91c-1.11 5.16-1.83 12.32 1.83 15.76 0 0-1.52 5.24-11.36 5.24-10.83 0-5.15-4.6-5.15-4.6 4.52-1.36 4.54-6.35 3.57-10.36z" clip-rule="evenodd"/><path fill="#3769A4" fill-rule="evenodd" d="M340.09 353.34q-.18-.01-.33.04a.5.5 0 0 0-.34.24c-.12.2-.08.31-.04.37.33.47 2.15.48 3.5.29-.67-.34-1.95-.94-2.8-.94m1.12 1.4c-.92 0-1.81-.13-2.1-.55-.1-.14-.19-.4.02-.74q.17-.3.54-.4c1.2-.33 3.7 1.1 3.8 1.17l.09.17-.14.14c-.46.1-1.35.2-2.2.2" clip-rule="evenodd"/><path fill="#3769A4" fill-rule="evenodd" d="M341.78 351.34h-.1c-.3.04-.33.16-.34.2-.08.49 1.07 1.7 1.95 2.24-.08-.56-.33-1.72-.92-2.22a1 1 0 0 0-.59-.22m1.72 2.92-.07-.02c-.86-.39-2.56-1.94-2.42-2.76.03-.19.17-.43.64-.47q.52-.06.94.29c.9.75 1.07 2.69 1.08 2.77l-.07.16z" clip-rule="evenodd"/><path fill="#BD5B52" fill-rule="evenodd" d="M352 354h-7.48l-.52-17h7.48z" clip-rule="evenodd"/><path fill="#0A1629" fill-rule="evenodd" d="M344.29 353h7.76c.3 0 .54.2.6.48l1.33 6.26c.13.64-.37 1.26-1.04 1.25-2.8-.05-6.85-.21-10.37-.21-4.12 0-6.71.22-11.54.22-2.92 0-3.7-2.92-2.47-3.19 5.58-1.2 9.16-1.33 14-4.26a3.4 3.4 0 0 1 1.73-.55" clip-rule="evenodd"/><path fill="#3769A4" fill-rule="evenodd" d="M369.22 108c7 .07 16.78 17.28 16.78 17.28L375.16 136s-7.11-3.2-11.06-11.03c-4.14-8.2-2.03-17.04 5.12-16.97" clip-rule="evenodd"/><path fill="#3A81EB" fill-rule="evenodd" d="M375.38 136c.24-5.14.67-10.54 1.4-16.03q.1-.78.1-1.54c0-3.88-1.92-7.39-4.88-9.43 6.15 3.75 13 16.74 13 16.74l-1.5 1.6z" clip-rule="evenodd"/><path fill="#3769A4" fill-rule="evenodd" d="M336.44 115.02c-1.56 7.72-2.67 23.58 1.16 54.98h38.2c.3-5.09-2.16-27.29 1.1-51.13a11.13 11.13 0 0 0-10.84-12.63c-4.87-.24-11.94-.4-16.23 0-1.8.16-3.56.42-5.13.7a10.3 10.3 0 0 0-8.26 8.08" clip-rule="evenodd"/><path fill="#3F8CFF" fill-rule="evenodd" d="M376.1 170.43h-38.5a348 348 0 0 1-2.47-29.36c3.87-.97 8.26-4.4 9.78-8.62 3.46-3.5 7.78-9.04 8.19-15.16l.03-1c0-5.09-2.65-9.4-7.24-9.4q-1.09 0-2.3.33.57-.16 1.17-.28a63 63 0 0 1 5.16-.7c1.91-.17 4.37-.24 6.93-.24a205 205 0 0 1 9.86.26 11.2 11.2 0 0 1 10.49 12.7 205 205 0 0 0-1.72 27.56c0 10.67.64 19.06.64 22.83q0 .63-.03 1.08m-41.03-31.06q-.05-1.75-.07-3.37l.1-.1a44 44 0 0 0-.03 3.47" clip-rule="evenodd"/><path fill="#3576D6" fill-rule="evenodd" d="m335.08 142-.06-1.78q-.05-1.94.03-3.62l1.61-1.76 3.9 2.2s2.02-1.51 4.44-4.04c-1.54 4.4-6 7.98-9.92 9" clip-rule="evenodd"/><path fill="#BEBFBB" fill-rule="evenodd" d="m351.2 345.59-.26-8.59z" clip-rule="evenodd"/><path fill="#914642" fill-rule="evenodd" d="M351 346h-6.76v-.02L344 337h6.76z" clip-rule="evenodd"/><path fill="#BD5B52" fill-rule="evenodd" d="M365.93 81.79c-.82 7.06-.94 11.23-4.77 14.72-5.76 5.24-14.46 1.64-15.8-5.49-1.2-6.42.36-16.88 7.55-19.42a9.67 9.67 0 0 1 13.02 10.19" clip-rule="evenodd"/><path fill="#233862" fill-rule="evenodd" d="M351.07 84.32c-2.21.5-3.22-4.66-.96-6.65-2-.99-4.9-2.42-5.87-4.58-1.11-2.47 1.9-5.44 4.5-5.32-.85-1.65 1-6.07 6.29-4.4 5.4 1.7 7.78 4.24 7.78 4.24s1.74-5.73 5.42-1.1c3.26 4.1 1.97 7.61 1.97 7.61s4.85 4.55 3.6 7.93a8.3 8.3 0 0 1-4.02 4.58s.74 7.95-5.16 9.86-9.6-2.02-9.11-4.29c-3.81.2-7.7-4.83-4.44-7.88" clip-rule="evenodd"/><path fill="#BD5B52" fill-rule="evenodd" d="M353.97 84.29a8.7 8.7 0 0 1-2.45 4.9c-1.75 1.72-3.37.49-3.5-1.74-.13-2.01.63-5.33 2.7-6.22 2.02-.87 3.53.82 3.24 3.06M413 344.68l-6.52 2.32-6.48-16.68 6.52-2.32z" clip-rule="evenodd"/><path fill="#3769A4" fill-rule="evenodd" d="M401.7 347.4q-.15.12-.24.24a.5.5 0 0 0-.12.4c.04.24.14.3.2.31.55.17 1.99-.95 2.92-1.93-.73.14-2.1.46-2.76.98m1.74.4c-.73.58-1.5 1.03-2 .88-.16-.05-.38-.2-.43-.6a1 1 0 0 1 .18-.65c.74-1 3.6-1.41 3.71-1.43l.17.09-.02.2c-.3.35-.93.98-1.6 1.52" clip-rule="evenodd"/><path fill="#3769A4" fill-rule="evenodd" d="m401.58 345.53-.07.07c-.23.21-.17.32-.15.36.24.44 1.9.68 2.92.56-.42-.4-1.32-1.16-2.1-1.18a1 1 0 0 0-.6.2m3.16 1.23-.07.04c-.92.22-3.22.05-3.6-.68-.1-.17-.14-.44.2-.77q.38-.36.92-.35c1.18.03 2.51 1.45 2.57 1.51l.04.17z" clip-rule="evenodd"/><path fill="#0A1629" fill-rule="evenodd" d="m405.51 344.89 6.07-4.75a.65.65 0 0 1 .79-.01l5.22 3.88c.54.4.55 1.17.02 1.57-2.22 1.68-6.5 5.12-9.12 7.44-3.06 2.7-.68.9-4.27 4.07-2.17 1.92-4.82.36-4.1-.63 3.29-4.53 3.99-7.22 4.41-10.1.09-.6.5-1.1.98-1.47" clip-rule="evenodd"/><path fill="#BD5B52" fill-rule="evenodd" d="m300 132.82-2.69-5.82-7.31 4.55s2.41 4.95 7.4 4.4z" clip-rule="evenodd"/><path fill="#BD5B52" fill-rule="evenodd" d="m290.63 125.6-1.75 1.48a2.44 2.44 0 0 0-.08 3.67l1.35 1.25 7.85-4.75-4.7-2.04a2.6 2.6 0 0 0-2.67.39" clip-rule="evenodd"/><path fill="#BEBFBB" fill-rule="evenodd" d="m403.1 339.63-.1-.28zm6.4-2.3-1.67-4.33z" clip-rule="evenodd"/><path fill="#914642" fill-rule="evenodd" d="m403.35 340-.1-.29-1.25-3.26 6.26-3.45 1.74 4.58z" clip-rule="evenodd"/><path fill="#0A1629" fill-rule="evenodd" d="M351 171s12.07 55.42 16.68 75.99c5.06 22.53 31.65 91.01 31.65 91.01l11.67-6.31s-12.49-53.73-21.62-83.04c-3.3-24.23-13.43-77.65-13.43-77.65z" clip-rule="evenodd"/><path fill="#3F8CFF" fill-rule="evenodd" d="m396 334.4 2.42 4.6 14.58-5.52-1.16-4.48z" clip-rule="evenodd"/><path fill="#A0A29F" fill-rule="evenodd" d="m367.61 248-.23-1h.01l.23.92z" clip-rule="evenodd"/><path fill="#939692" fill-rule="evenodd" d="m367.57 247.8-.14-.6z" clip-rule="evenodd"/><path fill="#1D5697" fill-rule="evenodd" d="m367.9 247-.01-.08-.8-3.92.8 3.92z" clip-rule="evenodd"/><path fill="#8593A0" fill-rule="evenodd" d="m367 243-1-5z" clip-rule="evenodd"/><path fill="#000" fill-rule="evenodd" d="m367.99 248-.35-1.54-.02-.07-1.9-8.9c-2.5-11.78-5.9-27.87-8.72-41.35q.42-.14.9-.14.24 0 .5.04c8.75 1.2 9.74 33.15 9.59 51.96" clip-rule="evenodd"/><path fill="#0A1629" fill-rule="evenodd" d="M337.62 171s-3.07 53.7-2.56 75.61C335.58 269.4 342 344 342 344h12.23s2-73.27 2.83-95.65c.9-24.4 5.93-77.35 5.93-77.35z" clip-rule="evenodd"/><path fill="#3F8CFF" fill-rule="evenodd" d="m339 339 .63 5h14.9l.47-4.46z" clip-rule="evenodd"/><path fill="#BE5B52" fill-rule="evenodd" d="M348 119.37a81 81 0 0 1-12.05 16.09q-3.45 3.61-7.16 6.85c-2.44 2.17-5.06 4.24-7.38 6.13l-.83.67-.67.24c-1.8.64-3.62.75-5.18.57a16 16 0 0 1-4.18-1.07 27 27 0 0 1-6.3-3.68 45 45 0 0 1-7.19-6.92 39 39 0 0 1-2.06-2.6l3.95-3.66c1.54 1.14 3.18 2.36 4.83 3.42a55 55 0 0 0 4.95 2.97c1.64.86 3.3 1.56 4.77 1.92.73.18 1.4.25 1.9.23q.74-.07.95-.26l-1.5.92c2.44-2.27 4.65-4.29 6.85-6.43a131 131 0 0 0 6.27-6.53c1.98-2.25 3.9-4.53 5.65-6.91a96 96 0 0 0 4.9-7.32z" clip-rule="evenodd"/><path fill="#3769A4" fill-rule="evenodd" d="M352.97 117.24c-.69 10.2-12.56 18.76-12.56 18.76L325 127.68s5.68-12.02 13.32-17.69c9.45-7 15.17-.5 14.65 7.25" clip-rule="evenodd"/><path fill="#3F8CFF" fill-rule="evenodd" d="m340.4 136-13.59-7.34-1.81-.98s5.68-12.02 13.32-17.69c2.84-2.1 5.34-2.99 7.43-2.99 4.6 0 7.25 4.25 7.25 9.26q0 .49-.03.98c-.69 10.2-12.56 18.76-12.56 18.76" clip-rule="evenodd"/></g><defs><clipPath id="a"><path fill="#fff" d="M0 0h500v373H0z"/></clipPath></defs></svg>