<svg xmlns="http://www.w3.org/2000/svg" fill="none" viewBox="0 0 19 19"><path fill="currentColor" fill-rule="evenodd" d="M9.5 0h.5l.32.02A9.5 9.5 0 0 1 19 9v.5a9.5 9.5 0 0 1-13.08 8.8l-.27-.12-1.57.58A3 3 0 0 1 .3 17.13l-.07-.17a3 3 0 0 1 0-2.07l.59-1.55-.12-.26A9 9 0 0 1 0 9.87V9.5A9.5 9.5 0 0 1 9.5 0m.46 2H9.5a7.5 7.5 0 0 0-6.7 10.85 1 1 0 0 1 .04.8l-.73 1.94a1 1 0 0 0 1.28 1.29l1.97-.72a1 1 0 0 1 .8.05A7.5 7.5 0 0 0 17 9.5v-.45A7.5 7.5 0 0 0 9.95 2m0 0h-.02zM5 8a1 1 0 0 1 1-1h7a1 1 0 1 1 0 2H6a1 1 0 0 1-1-1m3 3a1 1 0 1 0 0 2h3a1 1 0 1 0 0-2z" clip-rule="evenodd"/></svg>