<svg xmlns="http://www.w3.org/2000/svg" fill="none" viewBox="0 0 24 24"><path fill="currentColor" fill-rule="evenodd" d="M11.5 3h.5l.32.02A9.5 9.5 0 0 1 21 12v.5a9.5 9.5 0 0 1-13.08 8.8l-.27-.12-1.57.58a3 3 0 0 1-3.78-1.63l-.07-.17a3 3 0 0 1 0-2.07l.59-1.55-.12-.26a9 9 0 0 1-.7-3.21v-.37A9.5 9.5 0 0 1 11.5 3m.46 2h-.46a7.5 7.5 0 0 0-6.7 10.85 1 1 0 0 1 .04.8l-.73 1.94a1 1 0 0 0 1.28 1.29l1.97-.72a1 1 0 0 1 .8.05A7.5 7.5 0 0 0 19 12.5v-.46A7.5 7.5 0 0 0 11.95 5m0 0h-.02zM7 11a1 1 0 0 1 1-1h7a1 1 0 1 1 0 2H8a1 1 0 0 1-1-1m3 3a1 1 0 1 0 0 2h3a1 1 0 1 0 0-2z" clip-rule="evenodd"/></svg>