<svg xmlns="http://www.w3.org/2000/svg" fill="none" viewBox="0 0 24 24"><path fill="currentColor" fill-rule="evenodd" d="M11 2a3 3 0 0 1 3 2.82V8h5a3 3 0 0 1 3 2.82V21a1 1 0 0 1-2 .12V11a1 1 0 0 0-.88-1H14v11a1 1 0 0 1-2 .12V5a1 1 0 0 0-.88-1H5a1 1 0 0 0-1 .88V21a1 1 0 0 1-2 .12V5a3 3 0 0 1 2.82-3H11m0 5a1 1 0 0 0-1-1H5.88A1 1 0 0 0 6 8h4.12A1 1 0 0 0 11 7m-5 6h4a1 1 0 0 1 .12 2H6a1 1 0 0 1-.12-2zm5 5a1 1 0 0 0-1-1H5.88A1 1 0 0 0 6 19h4.12a1 1 0 0 0 .88-1m7-3a1 1 0 0 1 .12 2H16a1 1 0 0 1-.12-2H18m1-2a1 1 0 0 0-1-1h-2.12a1 1 0 0 0 .12 2h2.12a1 1 0 0 0 .88-1" clip-rule="evenodd"/></svg>