<svg xmlns="http://www.w3.org/2000/svg" fill="none" viewBox="0 0 20 20"><path fill="currentColor" fill-rule="evenodd" d="M9 0a3 3 0 0 1 3 2.82V6h5a3 3 0 0 1 3 2.82V19a1 1 0 0 1-2 .12V9a1 1 0 0 0-.88-1H12v11a1 1 0 0 1-2 .12V3a1 1 0 0 0-.88-1H3a1 1 0 0 0-1 .88V19a1 1 0 0 1-2 .12V3a3 3 0 0 1 2.82-3H9m0 5a1 1 0 0 0-1-1H3.88A1 1 0 0 0 4 6h4.12A1 1 0 0 0 9 5m-5 6h4a1 1 0 0 1 .12 2H4a1 1 0 0 1-.12-2zm5 5a1 1 0 0 0-1-1H3.88A1 1 0 0 0 4 17h4.12A1 1 0 0 0 9 16m7-3a1 1 0 0 1 .12 2H14a1 1 0 0 1-.12-2H16m1-2a1 1 0 0 0-1-1h-2.12a1 1 0 0 0 .12 2h2.12a1 1 0 0 0 .88-1" clip-rule="evenodd"/></svg>