<svg xmlns="http://www.w3.org/2000/svg" fill="none" viewBox="0 0 19 19"><path fill="currentColor" fill-rule="evenodd" d="M9.5 2a7.5 7.5 0 1 0-.01 14.99A7.5 7.5 0 0 0 9.5 2m3.75 10.2-1.06 1.05-2.69-2.7-2.7 2.7-1.05-1.06 2.7-2.69-2.7-2.7 1.06-1.05 2.69 2.7 2.7-2.7 1.05 1.06-2.7 2.69z" clip-rule="evenodd"/><mask id="a" width="15" height="15" x="2" y="2" maskUnits="userSpaceOnUse" style="mask-type:luminance"><path fill="#fff" fill-rule="evenodd" d="M9.5 2a7.5 7.5 0 1 0-.01 14.99A7.5 7.5 0 0 0 9.5 2m3.75 10.2-1.06 1.05-2.69-2.7-2.7 2.7-1.05-1.06 2.7-2.69-2.7-2.7 1.06-1.05 2.69 2.7 2.7-2.7 1.05 1.06-2.7 2.69z" clip-rule="evenodd"/></mask></svg>