<svg xmlns="http://www.w3.org/2000/svg" fill="none" viewBox="0 0 23 22"><path fill="currentColor" fill-rule="evenodd" d="M15.95 6.3A8.4 8.4 0 0 0 9.23 1 8.4 8.4 0 0 0 .91 5.55c-1.37 2.86-1.13 7.23.55 9.8a1 1 0 0 0 1.68-1.09c-1.3-1.98-1.5-5.61-.44-7.82A6.4 6.4 0 0 1 9 3a6.3 6.3 0 0 1 5.33 4.83c.1.45.5.77.97.77h1.38a3.8 3.8 0 0 1 3.26 2.79 4.3 4.3 0 0 1-.6 3.1 1 1 0 0 0 1.72 1.01 6.3 6.3 0 0 0 .82-4.61l-.08-.24a5.8 5.8 0 0 0-5.3-4.05h-.45zm-3.96 5.58A1 1 0 0 0 10 12v6.59l-2.3-2.3-.09-.08a1 1 0 0 0-1.32 1.5l4 4 .1.08a1 1 0 0 0 1.32-.08l4-4 .08-.1a1 1 0 0 0-.08-1.32l-.1-.08a1 1 0 0 0-1.32.08L12 18.6v-6.71" clip-rule="evenodd"/></svg>