<svg xmlns="http://www.w3.org/2000/svg" fill="none" viewBox="0 0 22 22"><path fill="currentColor" fill-rule="evenodd" d="M11 0a11 11 0 1 0 0 22 11 11 0 0 0 0-22m0 2a9 9 0 1 1 0 18 9 9 0 0 1 0-18m4.6 10.2a1 1 0 0 0-1.4.2l-.13.15q-.24.27-.72.64c-.7.51-1.49.81-2.35.81s-1.65-.3-2.35-.8a4 4 0 0 1-.85-.8 1 1 0 1 0-1.6 1.2c.24.32.67.77 1.27 1.2C8.5 15.56 9.67 16 11 16s2.5-.45 3.53-1.2c.6-.43 1.03-.88 1.27-1.2a1 1 0 0 0-.2-1.4M8.01 7a1 1 0 0 1 .12 2H8a1 1 0 0 1-.12-2zm7 1a1 1 0 0 0-1-1h-.13A1 1 0 0 0 14 9h.13A1 1 0 0 0 15 8" clip-rule="evenodd"/></svg>