<svg xmlns="http://www.w3.org/2000/svg" fill="none" viewBox="0 0 24 24"><path fill="currentColor" fill-rule="evenodd" d="M14.03 8.03c.72 2.4-.21 4.98-2.3 6.37a9 9 0 0 1 4.3 3.3.75.75 0 0 1-.62 1.18H1.76a.76.76 0 0 1-.62-1.19 9 9 0 0 1 4.3-3.3A5.66 5.66 0 0 1 8.58 4c2.51 0 4.72 1.64 5.45 4.03m7.44-.72a5.66 5.66 0 0 1-2.01 7.09 9 9 0 0 1 4.3 3.3.75.75 0 0 1-.63 1.18H18.9a.8.8 0 0 1-.7-.43 10.6 10.6 0 0 0-3.28-4.03.75.75 0 0 1-.2-1 7.15 7.15 0 0 0-.36-8.03.75.75 0 0 1 .4-1.18 5.7 5.7 0 0 1 6.71 3.1" clip-rule="evenodd"/></svg>