<svg xmlns="http://www.w3.org/2000/svg" fill="none" viewBox="0 0 12 20"><path fill="currentColor" fill-rule="evenodd" d="M9.09 0a2.12 2.12 0 0 1 1.83 3.2l-.94 1.6a3 3 0 0 0 .08 3.16l1.46 2.24A2.46 2.46 0 0 1 9.46 14H7v4.6a1 1 0 0 1-2 .12V14H2.55a2.45 2.45 0 0 1-2.04-3.8l1.52-2.3a3 3 0 0 0 .14-3.08L1.29 3.2A2.17 2.17 0 0 1 3.2 0zM6 12h3.46a.46.46 0 0 0 .43-.62l-.04-.09-1.47-2.24A5 5 0 0 1 8.14 4l.12-.21.93-1.6A.13.13 0 0 0 9.13 2L9.09 2H3.2a.17.17 0 0 0-.17.2l.02.05.88 1.62a5 5 0 0 1-.1 4.92L3.7 9l-1.52 2.3a.45.45 0 0 0 .3.7H6" clip-rule="evenodd"/></svg>