<svg xmlns="http://www.w3.org/2000/svg" fill="none" viewBox="0 0 24 24"><path fill="currentColor" fill-rule="evenodd" d="M15.09 2a2.12 2.12 0 0 1 1.83 3.2l-.94 1.6a3 3 0 0 0 .08 3.16l1.46 2.24a2.46 2.46 0 0 1-2.06 3.8H13v4.6a1 1 0 0 1-2 .12V16H8.55a2.45 2.45 0 0 1-2.04-3.8l1.52-2.3a3 3 0 0 0 .14-3.08L7.29 5.2A2.17 2.17 0 0 1 9.2 2zM12 14h3.46a.46.46 0 0 0 .43-.62l-.04-.09-1.47-2.24A5 5 0 0 1 14.14 6l.12-.21.93-1.6a.12.12 0 0 0-.06-.18L15.09 4H9.2a.17.17 0 0 0-.17.2l.02.05.88 1.62a5 5 0 0 1-.1 4.92L9.7 11l-1.52 2.3a.45.45 0 0 0 .3.7H12" clip-rule="evenodd"/></svg>