<svg xmlns="http://www.w3.org/2000/svg" fill="none" viewBox="0 0 20 20"><path fill="currentColor" fill-rule="evenodd" d="M10 1.43q.17-.26.38-.47A3.3 3.3 0 0 1 15.53 5H17a3 3 0 0 1 3 3v1a3 3 0 0 1-2 2.83V17a3 3 0 0 1-2.82 3H5a3 3 0 0 1-3-2.82v-5.35A3 3 0 0 1 0 9V8a3 3 0 0 1 3-3h1.47A3.3 3.3 0 0 1 10 1.43m3.62 2.78c.5-.5.5-1.32 0-1.83l-.1-.1a1.3 1.3 0 0 0-1.73.1c-.26.25-.5.93-.64 1.83l-.07.55-.02.18.36-.04.37-.05.35-.06a3 3 0 0 0 1.48-.58M11 18h4a1 1 0 0 0 1-.88V12h-5zm-2-6v6H4.88A1 1 0 0 1 4 17v-5zm2-2h6a1 1 0 0 0 1-1V8a1 1 0 0 0-1-1h-6zM9 7v3H3a1 1 0 0 1-1-1V8a1 1 0 0 1 1-1zm-.79-4.62c.22.21.43.75.58 1.48l.06.35.05.37.04.36-.36-.04-.72-.11a3 3 0 0 1-1.48-.58A1.3 1.3 0 0 1 8.2 2.38" clip-rule="evenodd"/></svg>