<svg xmlns="http://www.w3.org/2000/svg" fill="none" viewBox="0 0 24 24"><path fill="currentColor" fill-rule="evenodd" d="M12 3.43q.17-.26.38-.47A3.3 3.3 0 0 1 17.53 7H19a3 3 0 0 1 3 3v1a3 3 0 0 1-2 2.83V19a3 3 0 0 1-2.82 3H7a3 3 0 0 1-3-2.82v-5.35A3 3 0 0 1 2 11v-1a3 3 0 0 1 3-3h1.47A3.3 3.3 0 0 1 12 3.43m3.62 2.78c.5-.5.5-1.32 0-1.83l-.1-.1a1.3 1.3 0 0 0-1.73.1c-.26.25-.5.93-.64 1.83l-.07.55-.02.18.36-.04.37-.05.35-.06a3 3 0 0 0 1.48-.58M13 20h4a1 1 0 0 0 1-.88V14h-5zm-2-6v6H6.88A1 1 0 0 1 6 19v-5zm2-2h6a1 1 0 0 0 1-1v-1a1 1 0 0 0-1-1h-6zm-2-3v3H5a1 1 0 0 1-1-1v-1a1 1 0 0 1 1-1zm-.79-4.62c.22.21.43.75.58 1.48l.06.35.05.37.04.36-.36-.04-.72-.11a3 3 0 0 1-1.48-.58 1.3 1.3 0 0 1 1.83-1.83" clip-rule="evenodd"/></svg>