<svg xmlns="http://www.w3.org/2000/svg" fill="none" viewBox="0 0 20 20"><path fill="currentColor" fill-rule="evenodd" d="M19 0a1 1 0 0 1 .12 2H1a1 1 0 0 1-.12-2H19m-1 5.77v6.46c0 1.53-1.34 2.77-3 2.77h-1c-1.66 0-3-1.24-3-2.77V5.77C11 4.24 12.34 3 14 3h1c1.66 0 3 1.24 3 2.77m-2 6.34V5.9c0-.5-.45-.89-1-.89h-1c-.55 0-1 .4-1 .89v6.22c0 .5.45.89 1 .89h1c.55 0 1-.4 1-.89M6 3H5C3.34 3 2 4.43 2 6.19V16.8C2 18.57 3.34 20 5 20h1c1.66 0 3-1.43 3-3.19V6.2C9 4.43 7.66 3 6 3M5 5h1c.55 0 1 .49 1 1.08v10.84c0 .6-.45 1.08-1 1.08H5c-.55 0-1-.48-1-1.08V6.08C4 5.48 4.45 5 5 5" clip-rule="evenodd"/></svg>