<svg xmlns="http://www.w3.org/2000/svg" fill="none" viewBox="0 0 24 24"><path fill="currentColor" fill-rule="evenodd" d="M21.13 2.76a6 6 0 0 0-8.41-.08L10.99 4.4l-.09.1a1 1 0 0 0 1.5 1.32l1.72-1.7.16-.16a4 4 0 0 1 5.48 5.82l-2.99 2.99-.16.16a4 4 0 0 1-5.87-.6 1 1 0 0 0-1.6 1.2 6 6 0 0 0 9.05.65l3-3 .17-.19a6 6 0 0 0-.23-8.23m-6.39 7.57a6 6 0 0 0-4.37-2.39l-.28-.01a6 6 0 0 0-4.4 1.76l-3 3-.17.19a6 6 0 0 0 8.65 8.3l1.72-1.72.08-.1a1 1 0 0 0-1.5-1.31l-1.7 1.7-.17.16a4 4 0 0 1-5.48-5.82l2.99-2.99.17-.16a4 4 0 0 1 5.86.6 1 1 0 0 0 1.6-1.2" clip-rule="evenodd"/></svg>