<svg xmlns="http://www.w3.org/2000/svg" fill="none" viewBox="0 0 50 50"><rect width="50" height="50" fill="#3F8CFF" rx="12"/><mask id="a" width="50" height="50" x="0" y="0" maskUnits="userSpaceOnUse" style="mask-type:luminance"><rect width="50" height="50" fill="#fff" rx="12"/></mask><path fill="#fff" fill-rule="evenodd" d="M18 25a3 3 0 0 1-3-3 3 3 0 0 1 3-3 3 3 0 0 1 3 3 3 3 0 0 1-3 3M43 18.34A9.45 9.45 0 0 0 33.5 9c-5.23 0-9.5 4.2-9.5 9.34V32s19-2.08 19-13.65M14 37.2c-1.01 0-1.84-.76-1.84-1.7S13 33.8 14 33.8s1.84.76 1.84 1.7S15 37.2 14 37.2m-7-1.7c0 3.57 3.15 6.5 7 6.5s7-2.93 7-6.5V26S7 27.45 7 35.5" clip-rule="evenodd"/></svg>