<svg xmlns="http://www.w3.org/2000/svg" fill="none" viewBox="0 0 20 20"><path fill="currentColor" fill-rule="evenodd" d="M10 0a7.3 7.3 0 0 1 7.3 7.06v4.74c0 .9.68 1.62 1.55 1.7h.28c1.11.13 1.16 1.74.13 1.97l-.13.03H.87c-1.16-.13-1.16-1.87 0-2h.28a1.7 1.7 0 0 0 1.54-1.55l.01-.15V7.3A7.3 7.3 0 0 1 10 0m1.56 17.1a1 1 0 0 1 .86 1.5 2.8 2.8 0 0 1-4.84 0 1 1 0 0 1 .75-1.5h3.23M4.7 7.08a5.3 5.3 0 0 1 10.6.22V12l.03.26q.08.63.36 1.2l.02.04H4.3l.02-.05.1-.21q.29-.67.29-1.44V7.08" clip-rule="evenodd"/></svg>