<svg xmlns="http://www.w3.org/2000/svg" fill="none" viewBox="0 0 24 24"><path fill="currentColor" fill-rule="evenodd" d="M12 2a7.3 7.3 0 0 1 7.3 7.06v4.74c0 .9.68 1.62 1.55 1.7h.28c1.11.13 1.16 1.74.13 1.97l-.13.03H2.87c-1.16-.13-1.16-1.87 0-2h.28a1.7 1.7 0 0 0 1.54-1.55l.01-.15V9.3A7.3 7.3 0 0 1 12 2m1.56 17.1a1 1 0 0 1 .86 1.5 2.8 2.8 0 0 1-4.84 0 1 1 0 0 1 .75-1.5h3.23M6.7 9.08a5.3 5.3 0 0 1 10.6.22V14l.03.26q.07.63.36 1.2l.02.04H6.3l.02-.05.1-.21q.29-.67.29-1.44V9.08" clip-rule="evenodd"/></svg>