<svg xmlns="http://www.w3.org/2000/svg" fill="none" viewBox="0 0 24 24"><path fill="currentColor" fill-rule="evenodd" d="M21 2a1 1 0 0 1 .12 2H3a1 1 0 0 1-.12-2H21m-1 5.77v6.46c0 1.53-1.34 2.77-3 2.77h-1c-1.66 0-3-1.24-3-2.77V7.77C13 6.24 14.34 5 16 5h1c1.66 0 3 1.24 3 2.77m-2 6.34V7.9c0-.5-.45-.89-1-.89h-1c-.55 0-1 .4-1 .89v6.22c0 .5.45.89 1 .89h1c.55 0 1-.4 1-.89M8 5H7C5.34 5 4 6.43 4 8.19V18.8C4 20.57 5.34 22 7 22h1c1.66 0 3-1.43 3-3.19V8.2C11 6.43 9.66 5 8 5M7 7h1c.55 0 1 .49 1 1.08v10.84c0 .6-.45 1.08-1 1.08H7c-.55 0-1-.48-1-1.08V8.08C6 7.48 6.45 7 7 7" clip-rule="evenodd"/></svg>