<svg xmlns="http://www.w3.org/2000/svg" fill="none" viewBox="0 0 24 24"><path fill="currentColor" fill-rule="evenodd" d="M20.65 6.13a5.6 5.6 0 0 0-5.94-1.9 1 1 0 1 0 .58 1.92 3.6 3.6 0 0 1 3.8 1.23 4.2 4.2 0 0 1 .56 4.31A3.7 3.7 0 0 1 16 14a1 1 0 1 0 0 2 7.3 7.3 0 0 1 6.16 3.54 1 1 0 1 0 1.68-1.08 9.8 9.8 0 0 0-4.14-3.65 6 6 0 0 0 1.78-2.32c.92-2.1.6-4.59-.83-6.36M8 4a6 6 0 0 0-3.63 10.78 9.8 9.8 0 0 0-4.21 3.68 1 1 0 0 0 1.68 1.08A7.4 7.4 0 0 1 8 16a7.4 7.4 0 0 1 6.16 3.54 1 1 0 1 0 1.68-1.08 9.8 9.8 0 0 0-4.21-3.68A6 6 0 0 0 8 4m-4 6a4 4 0 1 0 8 0 4 4 0 0 0-8 0" clip-rule="evenodd"/></svg>