<svg xmlns="http://www.w3.org/2000/svg" fill="none" viewBox="0 0 24 24"><path fill="currentColor" fill-rule="evenodd" d="M13.04 2.64a2 2 0 0 0-2.08 0L4.85 6.37a2 2 0 0 0 .03 3.43L11 13.4a2 2 0 0 0 2.03 0l6.1-3.6a2 2 0 0 0 .02-3.43zm6.56 8.83a1 1 0 0 1 1.09 1.68l-.1.06-6.6 3.75a2.9 2.9 0 0 1-2.7.1l-.17-.1L4.6 13.2a1 1 0 0 1 .9-1.79l.1.05 6.51 3.75a.9.9 0 0 0 .79.05l.1-.05zm-.1 3.66a1 1 0 0 1 1.1 1.68l-.1.06-6.6 3.75a2.9 2.9 0 0 1-2.7.1l-.18-.1-6.52-3.75a1 1 0 0 1 .9-1.79l.1.05L12 18.88a.9.9 0 0 0 .8.05l.1-.05z" clip-rule="evenodd"/></svg>