<svg xmlns="http://www.w3.org/2000/svg" fill="none" viewBox="0 0 22 22"><path fill="currentColor" fill-rule="evenodd" d="M18 0H4a4 4 0 0 0-4 4v5c0 4.37 2.66 8.17 7.84 11.38a6 6 0 0 0 6.32 0l.37-.23C19.47 16.98 22 13.25 22 9V4a4 4 0 0 0-4-4M4 2h14a2 2 0 0 1 2 2v5c0 3.5-2.14 6.64-6.54 9.46l-.36.22a4 4 0 0 1-4.2 0C4.24 15.8 2 12.58 2 9V4c0-1.1.9-2 2-2m12.71 3.29a1 1 0 0 0-1.41 0l-5.3 5.3-2.29-2.3-.1-.08A1 1 0 0 0 6.3 9.7l3 3 .09.08a1 1 0 0 0 1.32-.08l6-6 .09-.1a1 1 0 0 0-.09-1.32" clip-rule="evenodd"/></svg>