<svg xmlns="http://www.w3.org/2000/svg" fill="none" viewBox="0 0 24 24"><path fill="currentColor" fill-rule="evenodd" d="M12 0a3 3 0 0 0-3 3v.27q-.05.24-.23.4l-.06.04h-.06l-.13.06a.7.7 0 0 1-.72-.13l-.05-.06a3 3 0 0 0-4.38 4.1l.2.2c.17.19.22.47.12.72-.12.3-.36.47-.62.48H3a3 3 0 1 0 0 6h.17c.26 0 .49.16.6.4s.05.53-.13.72l-.06.05a3 3 0 0 0 4.1 4.38l.2-.2a.7.7 0 0 1 .72-.12c.3.12.47.36.48.62V21a3 3 0 1 0 6 0v-.17c0-.26.16-.49.4-.6a.7.7 0 0 1 .72.13l.05.06a3 3 0 0 0 4.38-4.1l-.2-.2a.7.7 0 0 1-.12-.72c.11-.24.34-.4.6-.4H21a3 3 0 1 0 0-6h-.27a.7.7 0 0 1-.4-.23l-.04-.06v-.06l-.06-.13a.7.7 0 0 1 .13-.72l.06-.05a3 3 0 0 0-4.1-4.38l-.2.2a.7.7 0 0 1-.72.12.7.7 0 0 1-.4-.6V3a3 3 0 0 0-3-3m0 2a1 1 0 0 1 1 1v.09c0 1.06.64 2.01 1.6 2.43.99.43 2.14.22 2.92-.54l.07-.06A1 1 0 1 1 19 6.33l-.06.06-.13.14c-.57.68-.77 1.6-.53 2.44l.04.03a1 1 0 0 0 .08.4c.42.96 1.37 1.6 2.43 1.6H21a1 1 0 1 1 0 2h-.09c-1.06 0-2.01.64-2.43 1.6-.43.99-.22 2.14.54 2.92l.06.07A1 1 0 1 1 17.67 19l-.06-.06a2.65 2.65 0 0 0-4.53 1.89V21a1 1 0 1 1-2 0v-.09a2.7 2.7 0 0 0-1.56-2.38l-.17-.07a2.6 2.6 0 0 0-2.87.56l-.07.06A1 1 0 1 1 5 17.67l.06-.06a2.65 2.65 0 0 0-1.89-4.53H3a1 1 0 1 1 0-2h.09a2.7 2.7 0 0 0 2.38-1.56l.07-.17c.41-.94.2-2.1-.56-2.87l-.06-.07A1 1 0 1 1 6.33 5l.06.06.14.13c.68.57 1.6.77 2.44.53L9 5.68a1 1 0 0 0 .4-.08A2.7 2.7 0 0 0 11 3.17V3a1 1 0 0 1 1-1m0 6a4 4 0 1 0 0 8 4 4 0 0 0 0-8m0 2a2 2 0 1 1 0 4 2 2 0 0 1 0-4" clip-rule="evenodd"/></svg>