<svg xmlns="http://www.w3.org/2000/svg" fill="none" viewBox="0 0 131 36"><path fill="currentColor" d="M120.16 23.83c-.17-.3-.55-.52-.97-.57l-4.64-.48c-.65-.07-1.2.26-1.26.74-.05.48.43.93 1.07 1l2.47.26-3.84 3.5a.7.7 0 0 0-.15.89c.17.3.55.52.97.57l4.64.48c.65.07 1.2-.26 1.26-.74.05-.48-.43-.93-1.07-1l-2.48-.26 3.85-3.5a.7.7 0 0 0 .15-.89M105.3 11.88c-.1-.23-.35-.41-.65-.48l-3.26-.7c-.45-.09-.87.1-.95.45-.07.33.24.69.69.78l1.74.37-3 2.2a.5.5 0 0 0-.17.62c.1.23.35.42.65.48l3.26.7c.45.09.87-.1.95-.45.07-.33-.24-.69-.69-.78l-1.74-.37 3-2.2a.5.5 0 0 0 .17-.62M130.1 6a1.8 1.8 0 0 0-1.43-.76l-6.65-.46c-.91-.06-1.7.44-1.75 1.13s.66 1.3 1.58 1.36l3.54.25-5.31 5.2a1 1 0 0 0-.17 1.27c.26.43.8.72 1.42.77l6.65.46c.92.06 1.7-.44 1.75-1.13.04-.69-.66-1.3-1.58-1.36l-3.54-.25 5.31-5.2a1 1 0 0 0 .17-1.27M8.16 19.83c-.17-.3-.55-.52-.97-.57l-4.64-.48c-.65-.07-1.2.26-1.26.74-.05.48.43.93 1.07 1l2.48.26-3.85 3.5a.7.7 0 0 0-.15.89c.17.3.55.52.97.57l4.64.48c.65.07 1.2-.26 1.26-.74.05-.48-.43-.93-1.07-1l-2.48-.26 3.85-3.5a.7.7 0 0 0 .15-.89M28.3 30.88a.9.9 0 0 0-.65-.48l-3.26-.7c-.45-.09-.87.1-.95.45-.07.33.24.69.69.78l1.74.37-3 2.2a.5.5 0 0 0-.17.62c.1.23.35.41.65.48l3.26.7c.45.09.87-.1.95-.45.07-.33-.24-.69-.69-.78l-1.74-.37 3-2.2a.5.5 0 0 0 .17-.62M21.1 2a1.8 1.8 0 0 0-1.43-.76L13.02.78c-.91-.06-1.7.44-1.75 1.13-.04.69.66 1.3 1.58 1.36l3.54.25-5.31 5.2a1 1 0 0 0-.17 1.27c.26.43.8.72 1.42.77l6.65.46c.91.06 1.7-.44 1.75-1.13.04-.69-.66-1.3-1.58-1.36l-3.54-.25 5.31-5.2a1 1 0 0 0 .17-1.27"/></svg>