<svg xmlns="http://www.w3.org/2000/svg" fill="none" viewBox="0 0 21 20"><path fill="currentColor" fill-rule="evenodd" d="M20 9.14c-.6-2-2.4-3.5-4.4-3.5h-1.2c-.7-3-3.2-5.2-6.2-5.6-3-.3-5.9 1.3-7.3 4-1.2 2.5-1.46 6.62.8 9.01q.93.38 2.33.62.09-.5.42-.94l.13-.14 4-4a2 2 0 0 1 2.64-.17l.05.04.14.13 4 4a2 2 0 0 1 .58 1.3c1.62-.19 2.85-.47 3.32-.84 1-.73 1-2.51.7-3.91M14 15a1 1 0 0 0 .7-1.7l-4-4-.1-.09a1 1 0 0 0-1.31.08l-4 4-.09.1a1 1 0 0 0 .09 1.32l.1.08a1 1 0 0 0 1.31-.08L9 12.4v6.71a1 1 0 0 0 1 .88 1 1 0 0 0 1-1v-6.59l1.7 1.72h.01l.58.58.1.08A1 1 0 0 0 14 15" clip-rule="evenodd"/></svg>