<svg xmlns="http://www.w3.org/2000/svg" fill="none" viewBox="0 0 21 20"><path fill="currentColor" fill-rule="evenodd" d="M18 .88A1 1 0 0 0 16 1v2h-2.12A1 1 0 0 0 14 5h2v2.12A1 1 0 0 0 18 7V5h2.12A1 1 0 0 0 20 3h-2zm-3.76 12.9c2.32.9 4.32 2.54 5.62 4.7a1 1 0 1 1-1.72 1.03A9.5 9.5 0 0 0 10 15a9.5 9.5 0 0 0-8.14 4.51A1 1 0 1 1 .14 18.5a11.3 11.3 0 0 1 5.87-4.8 6.9 6.9 0 0 1-2.74-7.58 7.2 7.2 0 0 1 8.57-4.92 1 1 0 1 1-.45 1.95 5.2 5.2 0 0 0-6.2 3.52 4.97 4.97 0 0 0 3.4 6.1 5.26 5.26 0 0 0 6.48-3.03 1 1 0 0 1 1.86.71 7 7 0 0 1-2.7 3.35" clip-rule="evenodd"/></svg>