<svg xmlns="http://www.w3.org/2000/svg" fill="none" viewBox="0 0 24 24"><path fill="currentColor" fill-rule="evenodd" d="M20 1.88A1 1 0 0 0 18 2v2h-2.12A1 1 0 0 0 16 6h2v2.12A1 1 0 0 0 20 8V6h2.12A1 1 0 0 0 22 4h-2V1.88m-3.76 12.9c2.32.9 4.32 2.54 5.62 4.7a1 1 0 1 1-1.72 1.03A9.5 9.5 0 0 0 12 16a9.5 9.5 0 0 0-8.14 4.51 1 1 0 1 1-1.72-1.02 11.3 11.3 0 0 1 5.87-4.8 6.9 6.9 0 0 1-2.74-7.58 7.2 7.2 0 0 1 8.57-4.92 1 1 0 1 1-.45 1.95 5.2 5.2 0 0 0-6.2 3.52 4.97 4.97 0 0 0 3.4 6.1c2.65.83 5.51-.52 6.48-3.03a1 1 0 0 1 1.86.71 7 7 0 0 1-2.7 3.35" clip-rule="evenodd"/></svg>