<svg xmlns="http://www.w3.org/2000/svg" fill="none" viewBox="0 0 24 24"><path fill="currentColor" fill-rule="evenodd" d="M12 3C8.62 3 5.66 4.63 3.15 7.32A21 21 0 0 0 .89 10.2l-.23.37q-.4.63-.55.97a1 1 0 0 0 0 .9l.1.21q.24.43.68 1.13.97 1.5 2.26 2.9C5.66 19.36 8.62 21 12 21s6.34-1.63 8.85-4.32q1.3-1.4 2.26-2.89l.23-.37q.4-.63.55-.97a1 1 0 0 0 0-.9l-.1-.21q-.24-.43-.68-1.13a21 21 0 0 0-2.26-2.9C18.34 4.64 15.38 3 12 3m0 2c2.75 0 5.22 1.37 7.4 3.68q1.16 1.26 2.03 2.61l.14.23.14.22.15.26-.15.26a18 18 0 0 1-2.31 3.06C17.22 17.63 14.75 19 12 19s-5.22-1.37-7.4-3.68a19 19 0 0 1-2.03-2.61l-.14-.23-.14-.22-.15-.26.15-.26A18 18 0 0 1 4.6 8.68C6.78 6.37 9.25 5 12 5m0 3a4 4 0 1 0 0 8 4 4 0 0 0 0-8m0 2a2 2 0 1 1 0 4 2 2 0 0 1 0-4" clip-rule="evenodd"/></svg>