<svg xmlns="http://www.w3.org/2000/svg" fill="none" viewBox="0 0 24 18"><path fill="currentColor" fill-rule="evenodd" d="M12 0C8.62 0 5.66 1.63 3.15 4.32A21 21 0 0 0 .89 7.2l-.23.37q-.4.63-.55.97a1 1 0 0 0 0 .9l.1.21q.24.43.68 1.13.97 1.5 2.26 2.9C5.66 16.36 8.62 18 12 18s6.34-1.63 8.85-4.32q1.3-1.4 2.26-2.89l.23-.37q.4-.63.55-.97a1 1 0 0 0 0-.9l-.1-.21q-.24-.43-.68-1.13a21 21 0 0 0-2.26-2.9C18.34 1.64 15.38 0 12 0m0 2c2.75 0 5.22 1.37 7.4 3.68q1.16 1.26 2.03 2.61l.14.23.14.22.15.26-.15.26a18 18 0 0 1-2.31 3.06C17.22 14.63 14.75 16 12 16s-5.22-1.37-7.4-3.68A19 19 0 0 1 2.57 9.7l-.14-.23-.14-.22L2.14 9l.15-.26A18 18 0 0 1 4.6 5.68C6.78 3.37 9.25 2 12 2m0 3a4 4 0 1 0 0 8 4 4 0 0 0 0-8m0 2a2 2 0 1 1 0 4 2 2 0 0 1 0-4" clip-rule="evenodd"/></svg>