<svg xmlns="http://www.w3.org/2000/svg" fill="none" viewBox="0 0 180 162"><path fill="currentColor" d="M179.3 77.72c-.7-1.5-10.74-21.73-29.92-39.22l-9.88 12c14 12.5 21.01 24.17 24.5 30.51C156 93 135 131 89.6 133.5c-6.74 0-11.6-1-17.6-2.5l-10.14 12.4A81 81 0 0 0 90 148.5c58.88 0 88.08-61.6 89.3-64.22a7.8 7.8 0 0 0 0-6.56m-23.45-66.2L32.1 160.02a5.2 5.2 0 0 1-3.98 1.98 5.2 5.2 0 0 1-3.97-1.98 7 7 0 0 1-1.22-2.19 8 8 0 0 1 0-5.16q.43-1.24 1.22-2.2l15.74-18.88C14.44 113.14 1.51 86 .71 84.28a7.8 7.8 0 0 1 0-6.56C1.92 75.1 31.1 13.5 90 13.5c15.22 0 28.41 4.17 39.69 10.33l18.2-21.85a5 5 0 0 1 7.96 0 7.7 7.7 0 0 1 0 9.54M50 119.5 66.95 100C46.5 73 75 39 105.5 55L120 36c-9.1-4.36-18.4-7.5-30-7.5C45 30 23 71 16 80.99c4.23 7.7 15 24.51 34 38.51M76.5 88 95 67c-14-4.5-23.88 10.07-18.5 21"/><path fill="currentColor" d="m78.14 112.13 10-12.29c8.5 3.5 25-4.71 18.5-21.21 7.06-8.93 9.35-11.46 9.5-11.63q.02-.02 0 0c20.5 27-8 61.63-38 45.13"/></svg>